<svg xmlns="http://www.w3.org/2000/svg" viewBox="0 0 81.29 81.29"><defs><style>.cls-1{fill:#fff;}.cls-2{fill:#d80027;}.cls-3{fill:#0052b4;}</style></defs><g id="Layer_2" data-name="Layer 2"><g id="Layer_1-2" data-name="Layer 1"><path class="cls-1" d="M81.29,40.64c0,.7,0,1.4-.05,2.09A40.66,40.66,0,0,1,21.72,76.62,40.76,40.76,0,0,1,2.26,54,40.32,40.32,0,0,1,.05,42.73h0c0-.69,0-1.38,0-2.08,0-1.31.06-2.6.18-3.88A40.68,40.68,0,0,1,1,31.44c.23-1,.48-1.92.78-2.85A37.94,37.94,0,0,1,3.14,25Q3.52,24,4,23.15c.29-.62.6-1.23.93-1.82.2-.4.42-.79.65-1.18.09-.16.18-.31.28-.46a40.41,40.41,0,0,1,6.57-8.25c.94-.91,1.93-1.77,2.95-2.59.51-.4,1-.8,1.55-1.17A40.19,40.19,0,0,1,36.72.19,39.13,39.13,0,0,1,40.64,0,40.69,40.69,0,0,1,80.25,31.44,41.05,41.05,0,0,1,81.29,40.64Z"/><path class="cls-2" d="M75.75,20.15H5.53c.09-.16.18-.31.28-.46a40.41,40.41,0,0,1,6.57-8.25c.94-.91,1.93-1.77,2.95-2.59H66A40.66,40.66,0,0,1,75.75,20.15Z"/><path class="cls-2" d="M81.29,40.64c0,.7,0,1.4-.05,2.09H.05c0-.69,0-1.38,0-2.08,0-1.31.06-2.6.18-3.88A40.68,40.68,0,0,1,1,31.44H80.25A41.05,41.05,0,0,1,81.29,40.64Z"/><path class="cls-2" d="M79,54a40.28,40.28,0,0,1-6.1,11.29H8.35A40.5,40.5,0,0,1,2.26,54Z"/><path class="cls-2" d="M59.56,76.62a40.66,40.66,0,0,1-37.84,0Z"/><path class="cls-3" d="M36.72.19V42.72H.05c0-.69,0-1.38,0-2.08,0-1.31.06-2.6.18-3.88A40.68,40.68,0,0,1,1,31.44c.23-1,.48-1.92.78-2.85A37.94,37.94,0,0,1,3.14,25Q3.52,24,4,23.15l-.3-.93,1.23-.89c.2-.4.42-.79.65-1.18.09-.16.18-.31.28-.46a40.41,40.41,0,0,1,6.57-8.25c.94-.91,1.93-1.77,2.95-2.59.51-.4,1-.8,1.55-1.17A40.19,40.19,0,0,1,36.72.19Z"/><polygon class="cls-1" points="28.28 3.58 29.61 7.68 33.92 7.68 30.44 10.21 31.77 14.3 28.28 11.77 24.8 14.3 26.13 10.21 22.65 7.68 26.95 7.68 28.28 3.58"/><path class="cls-1" d="M19,8.85l-1.88,1.36,1.33,4.09-3.48-2.53L11.45,14.3l.93-2.86c.94-.91,1.93-1.77,2.95-2.59.51-.4,1-.8,1.55-1.17h3.69Z"/><polygon class="cls-1" points="28.28 15.6 29.61 19.69 33.92 19.69 30.44 22.22 31.77 26.32 28.28 23.79 24.8 26.32 26.13 22.22 22.65 19.69 26.95 19.69 28.28 15.6"/><polygon class="cls-1" points="14.93 15.6 16.26 19.69 20.57 19.69 17.08 22.22 18.41 26.32 14.93 23.79 11.45 26.32 12.78 22.22 9.29 19.69 13.6 19.69 14.93 15.6"/><path class="cls-1" d="M4,23.15l1,3.17L3.14,25Q3.52,24,4,23.15Z"/><path class="cls-1" d="M7.13,19.69l-.63.46L4.88,21.33c.2-.4.42-.79.65-1.18.09-.16.18-.31.28-.46Z"/><polygon class="cls-1" points="28.28 27.61 29.61 31.71 33.92 31.71 30.44 34.24 31.77 38.33 28.28 35.8 24.8 38.33 26.13 34.24 22.65 31.71 26.95 31.71 28.28 27.61"/><polygon class="cls-1" points="14.93 27.61 16.26 31.71 20.57 31.71 17.08 34.24 18.41 38.33 14.93 35.8 11.45 38.33 12.78 34.24 9.29 31.71 13.6 31.71 14.93 27.61"/><path class="cls-1" d="M3.65,34.24,5,38.33,1.5,35.8l-1.32,1A40.68,40.68,0,0,1,1,31.44c.23-1,.48-1.92.78-2.85l.92,2.85.09.27h4.3Z"/></g></g></svg>