<svg xmlns="http://www.w3.org/2000/svg" viewBox="0 0 193.34 42.89"><defs><style>.cls-1{fill:#000111;}.cls-2{fill:#666;}.cls-3{fill:#8169f1;}.cls-4{fill:#a44cee;}</style></defs><g id="Layer_2" data-name="Layer 2"><g id="Layer_1-2" data-name="Layer 1"><rect class="cls-1" x="64.31" y="0.1" width="4.33" height="20.49"/><path class="cls-1" d="M79.45,17.31a3.05,3.05,0,0,1-.6.06,2.2,2.2,0,0,1-.76-.13,1,1,0,0,1-.5-.46,1.88,1.88,0,0,1-.18-.91V8.43H80.3V5.22H77.41V1.54H73.15V5.22h-2.1V8.43h2.1v8a4.42,4.42,0,0,0,.63,2.5,3.75,3.75,0,0,0,1.79,1.46,6.51,6.51,0,0,0,2.7.41,7.55,7.55,0,0,0,1.41-.17c.39-.09.69-.16.9-.23l-.67-3.17Z"/><path class="cls-1" d="M94.88,7a6.42,6.42,0,0,0-2.3-1.45A8.22,8.22,0,0,0,89.74,5a7.58,7.58,0,0,0-3.93,1,6.87,6.87,0,0,0-2.6,2.79A9.08,9.08,0,0,0,82.29,13a9,9,0,0,0,.92,4.2,6.5,6.5,0,0,0,2.63,2.74,8,8,0,0,0,4.07,1,9,9,0,0,0,3.36-.59,6.11,6.11,0,0,0,2.38-1.64,5.35,5.35,0,0,0,1.23-2.47l-3.95-.26a2.71,2.71,0,0,1-.63,1,2.81,2.81,0,0,1-1,.6,4.08,4.08,0,0,1-1.3.2,3.65,3.65,0,0,1-1.85-.45A3,3,0,0,1,86.93,16a4.21,4.21,0,0,1-.43-2H97V12.83a9.91,9.91,0,0,0-.55-3.43A6.66,6.66,0,0,0,94.88,7Zm-8.36,4.4a3.55,3.55,0,0,1,.41-1.52A3.18,3.18,0,0,1,88.1,8.65a3.48,3.48,0,0,1,3.35,0,3,3,0,0,1,1.11,1.11,3.37,3.37,0,0,1,.4,1.64Z"/><path class="cls-1" d="M105,8.88a2.8,2.8,0,0,1,1.72-.54,2.63,2.63,0,0,1,1.9.71,3.14,3.14,0,0,1,.89,1.86h4a6,6,0,0,0-1-3.11,5.84,5.84,0,0,0-2.39-2A8.11,8.11,0,0,0,106.67,5a7.74,7.74,0,0,0-4,1A6.76,6.76,0,0,0,100,8.82,9,9,0,0,0,99.13,13a9.08,9.08,0,0,0,.9,4.12,6.73,6.73,0,0,0,2.6,2.79,8.72,8.72,0,0,0,7.61.26,5.85,5.85,0,0,0,2.36-2.09,6.22,6.22,0,0,0,1-3.09h-4a3.38,3.38,0,0,1-.5,1.38,2.55,2.55,0,0,1-1,.88,3,3,0,0,1-3-.24,3.5,3.5,0,0,1-1.15-1.57,6.86,6.86,0,0,1-.4-2.5,6.68,6.68,0,0,1,.41-2.47A3.35,3.35,0,0,1,105,8.88Z"/><polygon class="cls-1" points="124.9 11.88 130.6 5.22 125.71 5.22 120.79 11.06 120.56 11.06 120.56 0.1 116.3 0.1 116.3 20.59 120.56 20.59 120.56 15.71 121.71 14.39 125.9 20.59 130.89 20.59 124.9 11.88"/><polygon class="cls-2" points="64.31 34.94 67.05 34.94 67.05 42.73 68.11 42.73 68.11 34.94 70.85 34.94 70.85 34.01 64.31 34.01 64.31 34.94"/><polygon class="cls-2" points="73.54 38.83 77.48 38.83 77.48 37.89 73.54 37.89 73.54 34.94 77.75 34.94 77.75 34.01 72.49 34.01 72.49 42.73 77.82 42.73 77.82 41.8 73.54 41.8 73.54 38.83"/><path class="cls-2" d="M81.74,35.28a2.64,2.64,0,0,1,1.43-.4A2.94,2.94,0,0,1,84,35a2.14,2.14,0,0,1,.73.35,2.21,2.21,0,0,1,.56.58,2.12,2.12,0,0,1,.33.8h1.06a3.67,3.67,0,0,0-.44-1.2,3.33,3.33,0,0,0-.78-.89,3.43,3.43,0,0,0-1-.56,3.9,3.9,0,0,0-1.25-.19,3.68,3.68,0,0,0-2,.54A3.77,3.77,0,0,0,79.82,36a6,6,0,0,0,0,4.78,3.77,3.77,0,0,0,1.37,1.55,3.68,3.68,0,0,0,2,.54,3.9,3.9,0,0,0,1.25-.19,3.43,3.43,0,0,0,1-.56,3.1,3.1,0,0,0,.78-.9A3.53,3.53,0,0,0,86.69,40H85.63a2.23,2.23,0,0,1-.89,1.38,2.37,2.37,0,0,1-.73.36,3.34,3.34,0,0,1-.84.11,2.64,2.64,0,0,1-1.43-.4,2.7,2.7,0,0,1-1-1.18,5.11,5.11,0,0,1,0-3.82A2.7,2.7,0,0,1,81.74,35.28Z"/><polygon class="cls-2" points="94.1 37.89 89.45 37.89 89.45 34.01 88.39 34.01 88.39 42.73 89.45 42.73 89.45 38.83 94.1 38.83 94.1 42.73 95.16 42.73 95.16 34.01 94.1 34.01 94.1 37.89"/><path class="cls-2" d="M105.91,41.2a2.93,2.93,0,0,0,.45-.87,4.22,4.22,0,0,0,.2-1.41h-1a3.37,3.37,0,0,1-.22,1.26c-.05.11-.1.2-.15.29l-1.89-2.31.64-.47a3.63,3.63,0,0,0,.85-.86,2,2,0,0,0,.31-1.08,1.72,1.72,0,0,0-.26-.91,1.9,1.9,0,0,0-.73-.67,2.44,2.44,0,0,0-1.12-.25,2.34,2.34,0,0,0-1.12.25,1.85,1.85,0,0,0-.74.7,2,2,0,0,0-.26,1,2.17,2.17,0,0,0,.22,1,5,5,0,0,0,.6.89c.06.08.15.17.21.26a9,9,0,0,0-.85.66,2.82,2.82,0,0,0-.65.79,2,2,0,0,0-.23,1,2.31,2.31,0,0,0,1.3,2.12,3.23,3.23,0,0,0,1.48.31,3.59,3.59,0,0,0,1.27-.23,2.5,2.5,0,0,0,1-.64l.62.75h1.21l-1.21-1.48Zm-4-5.28a1,1,0,0,1,.15-.53,1.09,1.09,0,0,1,1-.6,1,1,0,0,1,.76.31.93.93,0,0,1,.3.65,1.11,1.11,0,0,1-.23.72,2.55,2.55,0,0,1-.59.52l-.57.42-.2-.24a5.44,5.44,0,0,1-.43-.63A1.35,1.35,0,0,1,101.92,35.92Zm2,5.84a2.31,2.31,0,0,1-1,.21,1.88,1.88,0,0,1-.91-.22,1.65,1.65,0,0,1-.6-.57,1.48,1.48,0,0,1-.21-.76,1.66,1.66,0,0,1,.2-.59,2.59,2.59,0,0,1,.8-.85l.32-.24h0l2.08,2.5A2.92,2.92,0,0,1,103.91,41.76Z"/><rect class="cls-2" x="111.69" y="34.01" width="1.06" height="8.73"/><polygon class="cls-2" points="114.38 34.94 117.13 34.94 117.13 42.73 118.19 42.73 118.19 34.94 120.93 34.94 120.93 34.01 114.38 34.01 114.38 34.94"/><path class="cls-2" d="M131,38.64a3.52,3.52,0,0,0-.81-.43,6.68,6.68,0,0,0-.76-.25l-.89-.24a5.31,5.31,0,0,1-.53-.17,2.77,2.77,0,0,1-.55-.26,1.47,1.47,0,0,1-.44-.42,1,1,0,0,1-.16-.6,1.23,1.23,0,0,1,.24-.74,1.62,1.62,0,0,1,.67-.52,2.64,2.64,0,0,1,1-.19,2.37,2.37,0,0,1,1.34.36,1.36,1.36,0,0,1,.62,1h1a2.05,2.05,0,0,0-.41-1.18,2.66,2.66,0,0,0-1-.82,3.59,3.59,0,0,0-1.5-.3,3.67,3.67,0,0,0-1.51.3,2.79,2.79,0,0,0-1.08.85,2.19,2.19,0,0,0-.4,1.28,1.84,1.84,0,0,0,.6,1.43,3.88,3.88,0,0,0,1.62.84l1.07.31a5.1,5.1,0,0,1,.86.3,1.78,1.78,0,0,1,.64.44,1,1,0,0,1,.24.71,1.28,1.28,0,0,1-.28.83,1.8,1.8,0,0,1-.76.55,2.72,2.72,0,0,1-1.09.2,3,3,0,0,1-1-.15,1.83,1.83,0,0,1-.74-.48,1.32,1.32,0,0,1-.33-.82h-1.1a2.46,2.46,0,0,0,.45,1.26,2.52,2.52,0,0,0,1.07.84,3.87,3.87,0,0,0,1.62.31,4,4,0,0,0,1.71-.34,2.56,2.56,0,0,0,1.08-.91,2.33,2.33,0,0,0,.36-1.28,2,2,0,0,0-.25-1A2.2,2.2,0,0,0,131,38.64Z"/><path class="cls-2" d="M139.09,34.43a3.92,3.92,0,0,0-4,0A3.77,3.77,0,0,0,133.75,36a6,6,0,0,0,0,4.78,3.77,3.77,0,0,0,1.37,1.55,3.92,3.92,0,0,0,4,0,3.77,3.77,0,0,0,1.37-1.55,6,6,0,0,0,0-4.78A3.77,3.77,0,0,0,139.09,34.43Zm.47,5.85a2.7,2.7,0,0,1-1,1.18,2.77,2.77,0,0,1-2.87,0,2.7,2.7,0,0,1-1-1.18,5,5,0,0,1,0-3.82,2.7,2.7,0,0,1,1-1.18,2.77,2.77,0,0,1,2.87,0,2.7,2.7,0,0,1,1,1.18,5.11,5.11,0,0,1,0,3.82Z"/><polygon class="cls-2" points="143.79 34.01 142.73 34.01 142.73 42.73 147.84 42.73 147.84 41.8 143.79 41.8 143.79 34.01"/><path class="cls-2" d="M155.21,39.7a2.38,2.38,0,0,1-.28,1.14,2,2,0,0,1-.81.78,2.68,2.68,0,0,1-1.25.28,2.71,2.71,0,0,1-1.25-.28,1.94,1.94,0,0,1-.8-.78,2.27,2.27,0,0,1-.28-1.14V34h-1.06v5.78a3,3,0,0,0,.42,1.59,2.85,2.85,0,0,0,1.18,1.1,4.11,4.11,0,0,0,3.58,0,2.85,2.85,0,0,0,1.18-1.1,3,3,0,0,0,.42-1.59V34h-1Z"/><polygon class="cls-2" points="157.9 34.94 160.64 34.94 160.64 42.73 161.7 42.73 161.7 34.94 164.44 34.94 164.44 34.01 157.9 34.01 157.9 34.94"/><rect class="cls-2" x="166.08" y="34.01" width="1.06" height="8.73"/><path class="cls-2" d="M174.75,34.43a3.92,3.92,0,0,0-4,0A3.77,3.77,0,0,0,169.41,36a6,6,0,0,0,0,4.78,3.77,3.77,0,0,0,1.37,1.55,3.92,3.92,0,0,0,4,0,3.84,3.84,0,0,0,1.37-1.55,6.07,6.07,0,0,0,0-4.78A3.84,3.84,0,0,0,174.75,34.43Zm.46,5.85a2.75,2.75,0,0,1-1,1.18,2.65,2.65,0,0,1-1.44.4,2.61,2.61,0,0,1-1.43-.4,2.7,2.7,0,0,1-1-1.18,5,5,0,0,1,0-3.82,2.7,2.7,0,0,1,1-1.18,2.61,2.61,0,0,1,1.43-.4,2.65,2.65,0,0,1,1.44.4,2.75,2.75,0,0,1,1,1.18,5,5,0,0,1,0,3.82Z"/><polygon class="cls-2" points="184.27 40.88 184.18 40.88 179.41 34.01 178.39 34.01 178.39 42.73 179.44 42.73 179.44 35.88 179.53 35.88 184.28 42.73 185.31 42.73 185.31 34.01 184.27 34.01 184.27 40.88"/><path class="cls-2" d="M193.08,39.33a2.2,2.2,0,0,0-.63-.69,3.52,3.52,0,0,0-.81-.43,6.68,6.68,0,0,0-.76-.25l-.88-.24a5.44,5.44,0,0,1-.54-.17,2.77,2.77,0,0,1-.55-.26,1.33,1.33,0,0,1-.43-.42,1,1,0,0,1-.17-.6,1.23,1.23,0,0,1,.24-.74,1.62,1.62,0,0,1,.67-.52,2.64,2.64,0,0,1,1-.19,2.37,2.37,0,0,1,1.34.36,1.33,1.33,0,0,1,.62,1h1a2.05,2.05,0,0,0-.41-1.18,2.59,2.59,0,0,0-1-.82,3.59,3.59,0,0,0-1.5-.3,3.67,3.67,0,0,0-1.51.3,2.79,2.79,0,0,0-1.08.85,2.18,2.18,0,0,0-.39,1.28,1.83,1.83,0,0,0,.59,1.43,3.88,3.88,0,0,0,1.62.84l1.07.31a5.1,5.1,0,0,1,.86.3,1.69,1.69,0,0,1,.64.44,1,1,0,0,1,.24.71,1.28,1.28,0,0,1-.28.83,1.74,1.74,0,0,1-.76.55,2.68,2.68,0,0,1-1.09.2,3.08,3.08,0,0,1-1-.15,1.9,1.9,0,0,1-.74-.48,1.38,1.38,0,0,1-.33-.82h-1.09a2.36,2.36,0,0,0,.44,1.26,2.58,2.58,0,0,0,1.07.84,3.87,3.87,0,0,0,1.62.31,4,4,0,0,0,1.71-.34,2.56,2.56,0,0,0,1.08-.91,2.34,2.34,0,0,0,.37-1.28A2,2,0,0,0,193.08,39.33Z"/><path class="cls-3" d="M28.49,0H12.42A12.42,12.42,0,0,0,0,12.42V28.55H14.28V14.33H28.49Z"/><path class="cls-4" d="M14.28,42.89H30.35A12.42,12.42,0,0,0,42.77,30.47V14.33H28.49V28.55H14.28Z"/></g></g></svg>