<svg xmlns="http://www.w3.org/2000/svg" xmlns:xlink="http://www.w3.org/1999/xlink" viewBox="0 0 1478 75"><defs><style>.cls-1{fill:url(#linear-gradient);}.cls-2{fill:url(#linear-gradient-2);}.cls-3{fill:url(#linear-gradient-3);}.cls-4{fill:url(#linear-gradient-4);}.cls-5{fill:url(#linear-gradient-5);}.cls-6{fill:url(#linear-gradient-6);}</style><linearGradient id="linear-gradient" y1="37.5" x2="1478" y2="37.5" gradientUnits="userSpaceOnUse"><stop offset="0" stop-color="#4e1c99"/><stop offset="1" stop-color="#6331ad"/></linearGradient><linearGradient id="linear-gradient-2" x1="-9.25" y1="65.85" x2="163.27" y2="-15.36" gradientUnits="userSpaceOnUse"><stop offset="0" stop-color="#953fde"/><stop offset="1" stop-color="#6331ad" stop-opacity="0.9"/></linearGradient><linearGradient id="linear-gradient-3" x1="1083.1" y1="40.32" x2="1236.74" y2="-32" xlink:href="#linear-gradient-2"/><linearGradient id="linear-gradient-4" x1="434.99" y1="199.37" x2="981.34" y2="-57.8" gradientUnits="userSpaceOnUse"><stop offset="0" stop-color="#5e48c6"/><stop offset="1" stop-color="#5e48c6"/></linearGradient><linearGradient id="linear-gradient-5" x1="243.45" y1="16.71" x2="302.29" y2="-10.99" gradientUnits="userSpaceOnUse"><stop offset="0" stop-color="#5c46c3"/><stop offset="1" stop-color="#7c64ea"/></linearGradient><linearGradient id="linear-gradient-6" x1="318.35" y1="30.38" x2="354.49" y2="13.37" gradientUnits="userSpaceOnUse"><stop offset="0" stop-color="#ff847f"/><stop offset="1" stop-color="#ff847f"/></linearGradient></defs><g id="Layer_2" data-name="Layer 2"><g id="Layer_1-2" data-name="Layer 1"><rect class="cls-1" width="1478" height="75"/><path class="cls-2" d="M168.63,0c0,34.07-29.36,63.19-70.85,75H15.44A131.87,131.87,0,0,1,0,69.58V0Z"/><path class="cls-3" d="M1250.13,0c-21.52,24.84-62.75,38.29-107.4,31.84-28.91-4.17-54.09-15.94-71.94-31.84Z"/><path class="cls-4" d="M1026,75H400.19c30.14-28.68,80.94-55.13,144.35-75H976.61c29.31,15.17,47.39,34.66,50.2,57.45A52.45,52.45,0,0,1,1026,75Z"/><path class="cls-5" d="M306.82,0c-5.23,10-18.63,17.11-34.35,17.11S243.36,10,238.14,0Z"/><ellipse class="cls-6" cx="336.9" cy="21.65" rx="20.44" ry="11.01"/></g></g></svg>